<?xml version="1.0" standalone="no"?><!DOCTYPE svg PUBLIC "-//W3C//DTD SVG 1.1//EN" "http://www.w3.org/Graphics/SVG/1.1/DTD/svg11.dtd"><svg t="1500868463822" class="icon" style="" viewBox="0 0 1024 1024" version="1.1" xmlns="http://www.w3.org/2000/svg" p-id="1351" xmlns:xlink="http://www.w3.org/1999/xlink" width="200" height="200"><defs><style type="text/css"></style></defs><path d="M751.134 937.196 272.864 937.196c-58.71 0-106.282-47.57-106.282-106.282L166.582 193.22c0-58.694 47.572-106.282 106.282-106.282l318.848 0c35.564-0.554 49.714 0.762 53.14 0.762l0-0.762 212.564 212.564c0 39.026 0 44.838 0 53.14l0 478.272C857.418 889.626 809.848 937.196 751.134 937.196zM644.854 140.08c0 63.28 0 106.282 0 106.282 0 29.34 23.786 53.142 53.14 53.142l106.282 0L644.854 140.08zM804.276 352.644c-61.86 0-106.282 0-106.282 0-58.71 0-106.282-47.57-106.282-106.284 0 0-1.246-42.656-0.762-106.282L272.864 140.078c-29.356 0-53.14 23.802-53.14 53.14l0 637.696c0 29.338 23.784 53.14 53.14 53.14l478.27 0c29.34 0 53.14-23.802 53.14-53.14L804.274 352.644zM671.424 724.632 352.578 724.632c-14.668 0-26.57-11.9-26.57-26.57s11.902-26.57 26.57-26.57l318.846 0c14.67 0 26.57 11.9 26.57 26.57S686.094 724.632 671.424 724.632zM671.424 565.208 352.578 565.208c-14.668 0-26.57-11.9-26.57-26.57 0-14.668 11.902-26.57 26.57-26.57l318.846 0c14.67 0 26.57 11.902 26.57 26.57C697.994 553.308 686.094 565.208 671.424 565.208z" p-id="1352"></path></svg>