<?xml version="1.0" standalone="no"?><!DOCTYPE svg PUBLIC "-//W3C//DTD SVG 1.1//EN" "http://www.w3.org/Graphics/SVG/1.1/DTD/svg11.dtd"><svg t="1505233131394" class="icon" style="" viewBox="0 0 1025 1024" version="1.1" xmlns="http://www.w3.org/2000/svg" p-id="5667" xmlns:xlink="http://www.w3.org/1999/xlink" width="200.1953125" height="200"><defs><style type="text/css"></style></defs><path d="M511.997193 15.224011c274.284812 0 496.773182 222.364871 496.773182 496.773182 0 231.44202-158.577836 425.435891-372.758117 480.583636-0.117885-1.094647-0.61188-2.004046-0.61188-3.132374l0-138.105134c0-40.732089-11.457303-71.286769-33.990187-91.703336 24.845676-2.234202 47.210153-6.028978 66.678025-11.345032 19.641893-4.518927 40.080914-13.214352 61.131815-26.075049 20.377272-10.553518 37.751281-24.800767 52.037826-42.926996 13.579234-15.858345 24.924266-38.441751 33.956506-67.884944 9.155738-27.141628 13.618529-59.61615 13.618529-97.305682 0-51.302448-16.896856-95.441976-50.858975-132.39613 15.830277-38.5035 13.887981-82.586893-5.669709-132.39613-3.435507-0.84765-7.303259-1.279895-11.603256-1.279895-10.800515 0-24.323614 2.677675-40.417729 8.044251-22.650769 9.823754-42.719294 19.26017-60.059622 28.320478l-23.773484 16.952992c-38.250889-11.272055-77.405564-16.952992-117.087915-16.952992-2.447518 0-4.90065 0.016841-7.342554 0.061749-2.469972-0.044909-4.934331-0.061749-7.39869-0.061749-40.344752 0-79.426451 5.731458-117.037393 17.087718-6.831719-5.282373-15.903254-10.929627-27.197763-16.964219-11.31135-7.510961-29.448806-15.835891-54.272028-24.896198-16.936151-7.393076-31.082356-11.103648-42.438615-11.103648-4.844514 0-9.195033 0.679242-13.029104 2.032114-18.872834 48.237437-20.433407 92.399419-4.530154 132.379289-33.97896 35.460943-50.915111 79.628539-50.915111 132.384903 0 36.196322 4.530154 68.698912 13.590461 97.513384 8.324929 27.124787 19.63628 49.71942 33.973346 67.783899 13.539939 16.649859 30.93079 30.93079 52.037826 42.994359 20.377272 11.345032 40.367207 19.984321 59.992259 26.018913 19.619439 3.766708 41.854804 7.583938 66.756615 11.395554-17.329101 14.252863-27.877006 36.53875-31.671781 66.711707-9.065921 2.963967-18.884061 6.034591-29.431966 9.060308-10.559132 1.487597-22.600247 2.672061-36.196322 3.429893-14.34268-0.763446-28.702201-5.271145-43.039268-13.618529-13.539939-9.795686-25.63719-23.408601-36.207549-40.715248-7.55587-14.381975-17.68837-25.592281-30.543453-33.905984-12.855083-9.026626-23.790324-14.000252-32.856245-14.730017l-12.411611-3.390598c-9.071535 0.729765-15.465395 1.903001-19.26017 3.390598-2.975194 2.239816-3.789162 4.558222-2.228589 6.78681 0.735378 3.699345 2.604698 6.730675 5.652868 9.037853 2.295952 3.822844 4.906263 6.483677 7.881457 7.875844l4.530154 4.490859c9.81814 3.850911 19.24333 12.041115 28.309251 24.896198 9.060308 11.31135 15.841504 22.224137 20.377272 32.777655l6.758742 13.607302c5.287986 17.385237 14.71879 30.53784 28.320478 39.631829 13.601688 10.547905 27.944369 17.003514 43.044881 19.226489 13.214352 3.244645 25.917869 4.793992 38.099323 4.793992 2.408223 0 4.793992-0.056136 7.16292-0.174021 3.530938 0.174021 6.932763 0.275065 10.199863 0.275065 9.936025 0 18.620223-0.842036 26.002072-2.582244l14.707562-1.150783c0 15.824664 0 35.112902 0 57.780511 0 21.045287 0 32.743974 0 34.966949 0 1.055352-0.488381 1.970364-0.623107 3.065011-214.286939-55.153359-372.881616-249.14723-372.881616-480.583636C15.229625 237.594496 237.60011 15.224011 511.997193 15.224011M513.24902 1008.708626c-0.449086 0-0.881331 0.067363-1.246213 0.067363-0.359269 0-0.724151-0.067363-1.17885-0.067363L513.24902 1008.708626M511.997193 2.806787c-280.768489 0-509.190406 228.416303-509.190406 509.190406 0 232.121262 157.163216 434.692673 382.205762 492.607911l13.702733 3.530938 1.656004-13.562393c0.331201-1.190078 0.76906-2.896604 0.76906-5.046603l0-34.966949 0-57.780511 0-13.433281-13.388373 1.044125-14.707562 1.150783-0.94308 0.084204-0.931853 0.213316c-6.337724 1.498824-14.129364 2.245429-23.15599 2.245429-3.025716 0-6.253521-0.089817-9.571143-0.258224l-0.62872-0.028068-0.62872 0.028068c-2.155612 0.117885-4.339292 0.162794-6.534199 0.162794-11.328191 0-23.150377-1.493211-35.14097-4.429109l-0.578198-0.145953-0.583812-0.084204c-12.798947-1.880547-25.328443-7.510961-37.234833-16.74529l-0.342428-0.269452-0.364882-0.241384c-11.255215-7.527802-18.884061-18.300249-23.346852-32.929222l-0.303133-0.993602-0.449086-0.915012-6.61279-13.309783c-4.911877-11.339418-12.220749-23.116695-21.724529-35.023085-9.705868-13.685892-19.939413-22.852857-31.194628-27.933141l-2.834855-2.801173-1.526892-1.510051-1.936683-0.909399c-0.005614-0.016841-0.954307-0.493994-2.408223-2.87415 1.184464-0.145953 2.486813-0.297519 3.946342-0.437859l10.278453 2.818014 1.122715 0.308747 1.156396 0.095431c4.575062 0.370496 12.933673 2.834855 26.703769 12.512655l0.196475 0.145953 0.196475 0.123499c11.126103 7.185374 19.726097 16.756517 26.299592 29.246718l0.185248 0.353655 0.202089 0.342428c11.401168 18.676359 24.699723 33.574783 39.530784 44.313549l0.499608 0.353655 0.538903 0.325587c15.953776 9.262396 32.311729 14.410043 48.624773 15.28576l0.679242 0.028068 0.673629-0.028068c13.365918-0.752219 25.889801-1.942296 37.234833-3.536551l0.86449-0.129112 0.836422-0.23577c9.66096-2.767492 19.428578-5.776367 29.869824-9.200647l7.47728-2.453132 0.976762-7.808481c3.379371-26.832881 12.53511-46.575819 27.242672-58.656229l21.471918-17.660302-27.472828-4.21018c-23.644371-3.626368-45.716942-7.393076-65.622674-11.187852-18.642677-5.798821-37.790576-14.129364-56.955316-24.806381-19.709256-11.266442-36.044755-24.739018-48.428298-39.974257-13.203125-16.644245-23.908209-38.071255-31.739144-63.601787-8.672971-27.551418-13.051558-59.105315-13.051558-93.870175 0-49.270334 15.970616-90.923049 47.473991-123.790522l5.523756-5.76514-2.947126-7.415531c-13.94973-35.073607-13.18067-74.475279 2.279111-117.211414 1.173237-0.129112 2.430677-0.190861 3.73864-0.190861 9.565529 0 22.168002 3.390598 37.470603 10.059524l0.348042 0.151566 0.364882 0.123499c23.795938 8.695425 41.181175 16.621791 51.656103 23.577008l0.488381 0.331201 0.527676 0.280679c10.693857 5.709004 19.26017 11.036285 25.446328 15.830277l5.063443 3.912661 6.130022-1.846866c36.39841-10.985763 74.57071-16.554428 113.450319-16.554428 2.391382 0 4.788378 0.022454 7.185374 0.061749l0.218929 0 0.213316 0c2.374542-0.039295 4.74347-0.061749 7.129238-0.061749 38.357547 0 76.585983 5.534983 113.573818 16.44777l5.804435 1.71214 4.923104-3.514097 23.06056-16.442157c16.391634-8.538245 35.904416-17.727665 58.010668-27.321262 14.511087-4.793992 26.619565-7.235896 35.977392-7.235896 0.881331 0 1.745821 0.022454 2.571017 0.067363 15.886413 43.819554 16.98106 82.979843 3.222191 116.470422l-2.992035 7.303259 5.332895 5.821276c32.019823 34.837837 47.575035 75.390291 47.575035 123.986997 0 36.432092-4.356133 67.834422-12.967355 93.331272l-0.061749 0.151566-0.050522 0.168407c-8.448428 27.540191-19.058082 48.894225-31.514601 63.455834l-0.15718 0.196475-0.151566 0.190861c-13.017877 16.50952-29.168128 29.841756-47.996053 39.592534l-0.387337 0.196475-0.370496 0.230157c-19.787846 12.086024-39.11538 20.349204-57.438083 24.564997l-0.252611 0.061749-0.23577 0.072976c-18.659518 5.07467-40.355979 8.762788-64.5168 10.946468l-28.225047 2.548562 21.005992 19.018787c19.832755 17.985889 29.892279 45.733783 29.892279 82.497075l0 138.105134c0 2.251043 0.465927 4.013705 0.740992 4.990467l1.510051 13.742028 13.882367-3.575846c224.952729-57.926464 382.076649-260.497876 382.076649-492.613524C1021.198827 231.22309 792.771296 2.806787 511.997193 2.806787L511.997193 2.806787zM513.24902 996.280174 510.823956 996.280174l0 24.845676c-0.168407 0-0.336814-0.005614-0.493994-0.022454 0.62872 0.056136 1.156396 0.089817 1.678458 0.089817 0.477154 0 0.999216-0.028068 1.543733-0.072976l-0.297519 0.005614 0-24.845676L513.24902 996.280174z" p-id="5668" fill="#515151"></path></svg>